{"title":"Heroes Mountain 2002 DVDRip x264 AC3 - inyd","uid":9612233,"size":1524306857,"categoryP":"video","categoryS":"movies","magnet":"?xt=urn:btih:3cf7a6ca807e9856627cf32871031ebaf027df5b&amp;dn=Heroes+Mountain+2002+DVDRip+x264+AC3+-+inyd&amp;tr=udp%3A%2F%2Ftracker.openbittorrent.com%3A80&amp;tr=udp%3A%2F%2Fopen.demonii.com%3A1337&amp;tr=udp%3A%2F%2Ftracker.coppersurfer.tk%3A6969&amp;tr=udp%3A%2F%2Fexodus.desync.com%3A6969","seeders":1,"leechers":1,"uploader":"imPROvise","files":1,"time":1392341736,"description":"General\nName                                     : Heroes' Mountain\nFormat                                   : Matroska\nFormat version                           : Version 2\nFile size                                : 1.42 GiB\nDuration                                 : 1h 38mn\nOverall bit rate                         : 2 067 Kbps\nMovie name                               : HEROES_MOUNTAIN.Title2\nEncoded date                             : UTC 2014-02-13 23:23:14\nWriting application                      : DVDFab\nWriting library                          : libebml v0.7.8 + libmatroska v0.8.1\n\nVideo\nID                                       : 1\nFormat                                   : AVC\nFormat/Info                              : Advanced Video Codec\nFormat profile                           : &lt;a class=&quot;__cf_email__&quot; href=&quot;/cdn-cgi/l/email-protection&quot; data-cfemail=&quot;5b13323c331b176f756a&quot;&gt;[email&amp;#160;protected]&lt;/a&gt;&lt;script cf-hash='f9e31' type=&quot;text/javascript&quot;&gt;\n/* &lt;![CDATA[ */!function(){try{var t=&quot;currentScript&quot;in document?document.currentScript:function(){for(var t=document.getElementsByTagName(&quot;script&quot;),e=t.length;e--;)if(t[e].getAttribute(&quot;cf-hash&quot;))return t[e]}();if(t&amp;&amp;t.previousSibling){var e,r,n,i,c=t.previousSibling,a=c.getAttribute(&quot;data-cfemail&quot;);if(a){for(e=&quot;&quot;,r=parseInt(a.substr(0,2),16),n=2;a.length-n;n+=2)i=parseInt(a.substr(n,2),16)^r,e+=String.fromCharCode(i);e=document.createTextNode(e),c.parentNode.replaceChild(e,c)}}}catch(u){}}();/* ]]&gt; */&lt;/script&gt;\nFormat settings, CABAC                   : Yes\nFormat settings, ReFrames                : 2 frames\nCodec ID                                 : V_MPEG4/ISO/AVC\nDuration                                 : 1h 38mn\nBit rate                                 : 1 834 Kbps\nWidth                                    : 720 pixels\nHeight                                   : 416 pixels\nDisplay aspect ratio                     : 1.731\nFrame rate mode                          : Constant\nFrame rate                               : 25.000 fps\nColor space                              : YUV\nChroma subsampling                       : 4:2:0\nBit depth                                : 8 bits\nScan type                                : Progressive\nBits/(Pixel*Frame)                       : 0.245\nStream size                              : 1.26 GiB (89%)\nWriting library                          : x264 core\nDefault                                  : Yes\nForced                                   : No\nColor primaries                          : BT.601 NTSC\nTransfer characteristics                 : BT.709\nMatrix coefficients                      : BT.601\n\nAudio\nID                                       : 2\nFormat                                   : AC-3\nFormat/Info                              : Audio Coding 3\nMode extension                           : CM (complete main)\nFormat settings, Endianness              : Big\nCodec ID                                 : A_AC3\nDuration                                 : 1h 38mn\nBit rate mode                            : Constant\nBit rate                                 : 192 Kbps\nChannel(s)                               : 2 channels\nChannel positions                        : Front: L R\nSampling rate                            : 48.0 KHz\nBit depth                                : 16 bits\nCompression mode                         : Lossy\nStream size                              : 135 MiB (9%)\nDefault                                  : Yes\nForced                                   : No\n\nScreens: &lt;a href=&quot;\nhttp://postimg.org/image/6ce58e20z/&quot; rel=&quot;nofollow&quot; target=&quot;_NEW&quot;&gt;\nhttp://postimg.org/image/6ce58e20z/&lt;/a&gt; &lt;a href=&quot;\nhttp://postimg.org/image/dwqiw923l/&quot; rel=&quot;nofollow&quot; target=&quot;_NEW&quot;&gt;\nhttp://postimg.org/image/dwqiw923l/&lt;/a&gt; &lt;a href=&quot;\nhttp://postimg.org/image/a1wx35ve7/&quot; rel=&quot;nofollow&quot; target=&quot;_NEW&quot;&gt;\nhttp://postimg.org/image/a1wx35ve7/&lt;/a&gt;\n\nEnjoy and Please help seed as much as possible for faster download times and to keep this torrent alive!!! - inotyourdaddy {inyd}\n","torrent":{"xt":"urn:btih:3cf7a6ca807e9856627cf32871031ebaf027df5b","amp;dn":"Heroes+Mountain+2002+DVDRip+x264+AC3+-+inyd","amp;tr":["udp%3A%2F%2Ftracker.openbittorrent.com%3A80","udp%3A%2F%2Fopen.demonii.com%3A1337","udp%3A%2F%2Ftracker.coppersurfer.tk%3A6969","udp%3A%2F%2Fexodus.desync.com%3A6969"],"infoHash":"3cf7a6ca807e9856627cf32871031ebaf027df5b","infoHashBuffer":{"type":"Buffer","data":[60,247,166,202,128,126,152,86,98,124,243,40,113,3,30,186,240,39,223,91]},"announce":[],"urlList":[]}}